{
  "accessors": [
    {
      "bufferView": 1,
      "componentType": 5126,
      "count": 65532,
      "max": [
        160.61599731445313,
        203.91192626953125,
        120.38896179199219
      ],
      "min": [
        -166.58447265625,
        -212.036376953125,
        0.38836899399757385
      ],
      "type": "VEC3"
    },
    {
      "bufferView": 1,
      "byteOffset": 786384,
      "componentType": 5126,
      "count": 65532,
      "max": [
        1.0,
        0.9939312934875488,
        0.99506014585495
      ],
      "min": [
        -1.0,
        -0.9939312934875488,
        -1.0
      ],
      "type": "VEC3"
    },
    {
      "bufferView": 0,
      "componentType": 5125,
      "count": 309534,
      "type": "SCALAR"
    },
    {
      "bufferView": 1,
      "byteOffset": 1572768,
      "componentType": 5126,
      "count": 65532,
      "max": [
        160.61599731445313,
        203.91192626953125,
        120.38896179199219
      ],
      "min": [
        -166.58447265625,
        -212.036376953125,
        0.38836899399757385
      ],
      "type": "VEC3"
    },
    {
      "bufferView": 1,
      "byteOffset": 2359152,
      "componentType": 5126,
      "count": 65532,
      "max": [
        1.0,
        1.0,
        1.0
      ],
      "min": [
        -1.0,
        -1.0,
        -1.0
      ],
      "type": "VEC3"
    },
    {
      "bufferView": 0,
      "byteOffset": 1238136,
      "componentType": 5125,
      "count": 255630,
      "type": "SCALAR"
    },
    {
      "bufferView": 1,
      "byteOffset": 3145536,
      "componentType": 5126,
      "count": 15005,
      "max": [
        160.61599731445313,
        203.8563690185547,
        120.38896179199219
      ],
      "min": [
        -166.56326293945313,
        -212.036376953125,
        0.38836899399757385
      ],
      "type": "VEC3"
    },
    {
      "bufferView": 1,
      "byteOffset": 3325596,
      "componentType": 5126,
      "count": 15005,
      "max": [
        1.0,
        1.0,
        1.0
      ],
      "min": [
        -1.0,
        -1.0,
        -1.0
      ],
      "type": "VEC3"
    },
    {
      "bufferView": 0,
      "byteOffset": 2260656,
      "componentType": 5125,
      "count": 45666,
      "type": "SCALAR"
    },
    {
      "bufferView": 1,
      "byteOffset": 3505656,
      "componentType": 5126,
      "count": 65532,
      "max": [
        909.5521850585938,
        -627.984619140625,
        120.38896179199219
      ],
      "min": [
        582.3517456054688,
        -1043.9329833984375,
        0.38836899399757385
      ],
      "type": "VEC3"
    },
    {
      "bufferView": 1,
      "byteOffset": 4292040,
      "componentType": 5126,
      "count": 65532,
      "max": [
        1.0,
        0.9944086670875549,
        0.9950746297836304
      ],
      "min": [
        -1.0,
        -0.9944086670875549,
        -1.0
      ],
      "type": "VEC3"
    },
    {
      "bufferView": 0,
      "byteOffset": 2443320,
      "componentType": 5125,
      "count": 309012,
      "type": "SCALAR"
    },
    {
      "bufferView": 1,
      "byteOffset": 5078424,
      "componentType": 5126,
      "count": 65532,
      "max": [
        909.5521850585938,
        -627.984619140625,
        120.38896179199219
      ],
      "min": [
        582.3517456054688,
        -1043.9329833984375,
        0.38836899399757385
      ],
      "type": "VEC3"
    },
    {
      "bufferView": 1,
      "byteOffset": 5864808,
      "componentType": 5126,
      "count": 65532,
      "max": [
        1.0,
        1.0,
        1.0
      ],
      "min": [
        -1.0,
        -1.0,
        -1.0
      ],
      "type": "VEC3"
    },
    {
      "bufferView": 0,
      "byteOffset": 3679368,
      "componentType": 5125,
      "count": 253788,
      "type": "SCALAR"
    },
    {
      "bufferView": 1,
      "byteOffset": 6651192,
      "componentType": 5126,
      "count": 65532,
      "max": [
        909.5521850585938,
        -212.036376953125,
        120.38896179199219
      ],
      "min": [
        582.3517456054688,
        -836.5966186523438,
        0.38836899399757385
      ],
      "type": "VEC3"
    },
    {
      "bufferView": 1,
      "byteOffset": 7437576,
      "componentType": 5126,
      "count": 65532,
      "max": [
        1.0,
        1.0,
        1.0
      ],
      "min": [
        -1.0,
        -1.0,
        -1.0
      ],
      "type": "VEC3"
    },
    {
      "bufferView": 0,
      "byteOffset": 4694520,
      "componentType": 5125,
      "count": 288612,
      "type": "SCALAR"
    },
    {
      "bufferView": 1,
      "byteOffset": 8223960,
      "componentType": 5126,
      "count": 65532,
      "max": [
        909.5521850585938,
        203.91192626953125,
        120.38896179199219
      ],
      "min": [
        582.3517456054688,
        -627.9806518554688,
        0.38836899399757385
      ],
      "type": "VEC3"
    },
    {
      "bufferView": 1,
      "byteOffset": 9010344,
      "componentType": 5126,
      "count": 65532,
      "max": [
        1.0,
        1.0,
        1.0
      ],
      "min": [
        -1.0,
        -1.0,
        -1.0
      ],
      "type": "VEC3"
    },
    {
      "bufferView": 0,
      "byteOffset": 5848968,
      "componentType": 5125,
      "count": 294837,
      "type": "SCALAR"
    },
    {
      "bufferView": 1,
      "byteOffset": 9796728,
      "componentType": 5126,
      "count": 65532,
      "max": [
        909.5521850585938,
        203.91192626953125,
        120.38896179199219
      ],
      "min": [
        582.3517456054688,
        -212.036376953125,
        0.38836899399757385
      ],
      "type": "VEC3"
    },
    {
      "bufferView": 1,
      "byteOffset": 10583112,
      "componentType": 5126,
      "count": 65532,
      "max": [
        1.0,
        1.0,
        1.0
      ],
      "min": [
        -1.0,
        -1.0,
        -1.0
      ],
      "type": "VEC3"
    },
    {
      "bufferView": 0,
      "byteOffset": 7028316,
      "componentType": 5125,
      "count": 287910,
      "type": "SCALAR"
    },
    {
      "bufferView": 1,
      "byteOffset": 11369496,
      "componentType": 5126,
      "count": 65532,
      "max": [
        909.5521850585938,
        203.89663696289063,
        120.38896179199219
      ],
      "min": [
        582.3517456054688,
        -627.9546508789063,
        0.38836899399757385
      ],
      "type": "VEC3"
    },
    {
      "bufferView": 1,
      "byteOffset": 12155880,
      "componentType": 5126,
      "count": 65532,
      "max": [
        1.0,
        1.0,
        1.0
      ],
      "min": [
        -1.0,
        -1.0,
        -1.0
      ],
      "type": "VEC3"
    },
    {
      "bufferView": 0,
      "byteOffset": 8179956,
      "componentType": 5125,
      "count": 245847,
      "type": "SCALAR"
    },
    {
      "bufferView": 1,
      "byteOffset": 12942264,
      "componentType": 5126,
      "count": 47725,
      "max": [
        909.5521850585938,
        203.9061279296875,
        120.38896179199219
      ],
      "min": [
        582.3517456054688,
        -1043.232177734375,
        0.38836899399757385
      ],
      "type": "VEC3"
    },
    {
      "bufferView": 1,
      "byteOffset": 13514964,
      "componentType": 5126,
      "count": 47725,
      "max": [
        1.0,
        1.0,
        1.0
      ],
      "min": [
        -1.0,
        -1.0,
        -1.0
      ],
      "type": "VEC3"
    },
    {
      "bufferView": 0,
      "byteOffset": 9163344,
      "componentType": 5125,
      "count": 152484,
      "type": "SCALAR"
    }
  ],
  "asset": {
    "extras": {
      "author": "d880 (https://sketchfab.com/distance880)",
      "license": "CC-BY-4.0 (http://creativecommons.org/licenses/by/4.0/)",
      "source": "https://sketchfab.com/3d-models/sci-fi-floor-section-kb011-81923a03b0ef40f1b6d956e3cb30ead7",
      "title": "Sci-fi Floor Section KB011"
    },
    "generator": "Sketchfab-12.66.0",
    "version": "2.0"
  },
  "bufferViews": [
    {
      "buffer": 0,
      "byteLength": 9773280,
      "name": "floatBufferViews",
      "target": 34963
    },
    {
      "buffer": 0,
      "byteLength": 14087664,
      "byteOffset": 9773280,
      "byteStride": 12,
      "name": "floatBufferViews",
      "target": 34962
    }
  ],
  "buffers": [
    {
      "byteLength": 23860944,
      "uri": "scene.bin"
    }
  ],
  "materials": [
    {
      "doubleSided": true,
      "name": "Scene_-_Root",
      "pbrMetallicRoughness": {
        "baseColorFactor": [
          0.5078125,
          0.5078125,
          0.5078125,
          1.0
        ],
        "roughnessFactor": 0.495617378
      }
    }
  ],
  "meshes": [
    {
      "name": "Object_0",
      "primitives": [
        {
          "attributes": {
            "NORMAL": 1,
            "POSITION": 0
          },
          "indices": 2,
          "material": 0,
          "mode": 4
        }
      ]
    },
    {
      "name": "Object_1",
      "primitives": [
        {
          "attributes": {
            "NORMAL": 4,
            "POSITION": 3
          },
          "indices": 5,
          "material": 0,
          "mode": 4
        }
      ]
    },
    {
      "name": "Object_2",
      "primitives": [
        {
          "attributes": {
            "NORMAL": 7,
            "POSITION": 6
          },
          "indices": 8,
          "material": 0,
          "mode": 4
        }
      ]
    },
    {
      "name": "Object_3",
      "primitives": [
        {
          "attributes": {
            "NORMAL": 10,
            "POSITION": 9
          },
          "indices": 11,
          "material": 0,
          "mode": 4
        }
      ]
    },
    {
      "name": "Object_4",
      "primitives": [
        {
          "attributes": {
            "NORMAL": 13,
            "POSITION": 12
          },
          "indices": 14,
          "material": 0,
          "mode": 4
        }
      ]
    },
    {
      "name": "Object_5",
      "primitives": [
        {
          "attributes": {
            "NORMAL": 16,
            "POSITION": 15
          },
          "indices": 17,
          "material": 0,
          "mode": 4
        }
      ]
    },
    {
      "name": "Object_6",
      "primitives": [
        {
          "attributes": {
            "NORMAL": 19,
            "POSITION": 18
          },
          "indices": 20,
          "material": 0,
          "mode": 4
        }
      ]
    },
    {
      "name": "Object_7",
      "primitives": [
        {
          "attributes": {
            "NORMAL": 22,
            "POSITION": 21
          },
          "indices": 23,
          "material": 0,
          "mode": 4
        }
      ]
    },
    {
      "name": "Object_8",
      "primitives": [
        {
          "attributes": {
            "NORMAL": 25,
            "POSITION": 24
          },
          "indices": 26,
          "material": 0,
          "mode": 4
        }
      ]
    },
    {
      "name": "Object_9",
      "primitives": [
        {
          "attributes": {
            "NORMAL": 28,
            "POSITION": 27
          },
          "indices": 29,
          "material": 0,
          "mode": 4
        }
      ]
    }
  ],
  "nodes": [
    {
      "children": [
        1
      ],
      "matrix": [
        1.0,
        0.0,
        0.0,
        0.0,
        0.0,
        2.220446049250313e-16,
        -1.0,
        0.0,
        0.0,
        1.0,
        2.220446049250313e-16,
        0.0,
        0.0,
        0.0,
        0.0,
        1.0
      ],
      "name": "Sketchfab_model"
    },
    {
      "children": [
        2,
        3,
        4,
        5,
        6,
        7,
        8,
        9,
        10,
        11
      ],
      "name": "sfKB011.obj.cleaner.materialmerger.gles"
    },
    {
      "mesh": 0,
      "name": "Object_2"
    },
    {
      "mesh": 1,
      "name": "Object_3"
    },
    {
      "mesh": 2,
      "name": "Object_4"
    },
    {
      "mesh": 3,
      "name": "Object_5"
    },
    {
      "mesh": 4,
      "name": "Object_6"
    },
    {
      "mesh": 5,
      "name": "Object_7"
    },
    {
      "mesh": 6,
      "name": "Object_8"
    },
    {
      "mesh": 7,
      "name": "Object_9"
    },
    {
      "mesh": 8,
      "name": "Object_10"
    },
    {
      "mesh": 9,
      "name": "Object_11"
    }
  ],
  "scene": 0,
  "scenes": [
    {
      "name": "Sketchfab_Scene",
      "nodes": [
        0
      ]
    }
  ]
}
