{
  "accessors": [
    {
      "bufferView": 2,
      "componentType": 5126,
      "count": 65532,
      "max": [
        3.388474941253662,
        5.125363826751709,
        -0.026660000905394554
      ],
      "min": [
        -3.3884758949279785,
        -3.8605360984802246,
        -7.859179973602295
      ],
      "type": "VEC3"
    },
    {
      "bufferView": 2,
      "byteOffset": 786384,
      "componentType": 5126,
      "count": 65532,
      "max": [
        1.0,
        1.0,
        1.0
      ],
      "min": [
        -1.0,
        -1.0,
        -1.0
      ],
      "type": "VEC3"
    },
    {
      "bufferView": 3,
      "componentType": 5126,
      "count": 65532,
      "max": [
        1.0,
        1.0,
        1.0,
        1.0
      ],
      "min": [
        -1.0,
        -1.0,
        -1.0,
        -1.0
      ],
      "type": "VEC4"
    },
    {
      "bufferView": 1,
      "componentType": 5126,
      "count": 65532,
      "max": [
        0.9955679774284363,
        0.9986820220947266
      ],
      "min": [
        0.0006840000278316438,
        0.002164006233215332
      ],
      "type": "VEC2"
    },
    {
      "bufferView": 1,
      "byteOffset": 524256,
      "componentType": 5126,
      "count": 65532,
      "max": [
        0.9955679774284363,
        0.9986820220947266
      ],
      "min": [
        0.0006840000278316438,
        0.002164006233215332
      ],
      "type": "VEC2"
    },
    {
      "bufferView": 1,
      "byteOffset": 1048512,
      "componentType": 5126,
      "count": 65532,
      "max": [
        0.9955679774284363,
        0.9986820220947266
      ],
      "min": [
        0.0006840000278316438,
        0.002164006233215332
      ],
      "type": "VEC2"
    },
    {
      "bufferView": 1,
      "byteOffset": 1572768,
      "componentType": 5126,
      "count": 65532,
      "max": [
        0.9955679774284363,
        0.9986820220947266
      ],
      "min": [
        0.0006840000278316438,
        0.002164006233215332
      ],
      "type": "VEC2"
    },
    {
      "bufferView": 1,
      "byteOffset": 2097024,
      "componentType": 5126,
      "count": 65532,
      "max": [
        0.9955679774284363,
        0.9986820220947266
      ],
      "min": [
        0.0006840000278316438,
        0.002164006233215332
      ],
      "type": "VEC2"
    },
    {
      "bufferView": 0,
      "componentType": 5125,
      "count": 358839,
      "type": "SCALAR"
    },
    {
      "bufferView": 2,
      "byteOffset": 1572768,
      "componentType": 5126,
      "count": 8983,
      "max": [
        2.5983500480651855,
        4.6910271644592285,
        -3.0853030681610107
      ],
      "min": [
        -2.25872802734375,
        -4.1950178146362305,
        -8.210931777954102
      ],
      "type": "VEC3"
    },
    {
      "bufferView": 2,
      "byteOffset": 1680564,
      "componentType": 5126,
      "count": 8983,
      "max": [
        1.0,
        1.0,
        1.0
      ],
      "min": [
        -1.0,
        -1.0,
        -1.0
      ],
      "type": "VEC3"
    },
    {
      "bufferView": 3,
      "byteOffset": 1048512,
      "componentType": 5126,
      "count": 8983,
      "max": [
        0.9999999403953552,
        0.999998927116394,
        1.0,
        1.0
      ],
      "min": [
        -1.0,
        -0.9999992847442627,
        -0.9999984502792358,
        -1.0
      ],
      "type": "VEC4"
    },
    {
      "bufferView": 1,
      "byteOffset": 2621280,
      "componentType": 5126,
      "count": 8983,
      "max": [
        0.962689995765686,
        0.9343249797821045
      ],
      "min": [
        0.005572000052779913,
        0.0052790045738220215
      ],
      "type": "VEC2"
    },
    {
      "bufferView": 1,
      "byteOffset": 2693144,
      "componentType": 5126,
      "count": 8983,
      "max": [
        0.962689995765686,
        0.9343249797821045
      ],
      "min": [
        0.005572000052779913,
        0.0052790045738220215
      ],
      "type": "VEC2"
    },
    {
      "bufferView": 1,
      "byteOffset": 2765008,
      "componentType": 5126,
      "count": 8983,
      "max": [
        0.962689995765686,
        0.9343249797821045
      ],
      "min": [
        0.005572000052779913,
        0.0052790045738220215
      ],
      "type": "VEC2"
    },
    {
      "bufferView": 1,
      "byteOffset": 2836872,
      "componentType": 5126,
      "count": 8983,
      "max": [
        0.962689995765686,
        0.9343249797821045
      ],
      "min": [
        0.005572000052779913,
        0.0052790045738220215
      ],
      "type": "VEC2"
    },
    {
      "bufferView": 1,
      "byteOffset": 2908736,
      "componentType": 5126,
      "count": 8983,
      "max": [
        0.962689995765686,
        0.9343249797821045
      ],
      "min": [
        0.005572000052779913,
        0.0052790045738220215
      ],
      "type": "VEC2"
    },
    {
      "bufferView": 0,
      "byteOffset": 1435356,
      "componentType": 5125,
      "count": 47547,
      "type": "SCALAR"
    }
  ],
  "asset": {
    "extras": {
      "author": "Vengeance (https://sketchfab.com/Vangance)",
      "license": "CC-BY-4.0 (http://creativecommons.org/licenses/by/4.0/)",
      "source": "https://sketchfab.com/3d-models/sci-fi-drone-958b4c80256348968e59717aec424010",
      "title": "Sci-Fi-Drone"
    },
    "generator": "Sketchfab-16.3.0",
    "version": "2.0"
  },
  "bufferViews": [
    {
      "buffer": 0,
      "byteLength": 1625544,
      "name": "floatBufferViews",
      "target": 34963
    },
    {
      "buffer": 0,
      "byteLength": 2980600,
      "byteOffset": 1625544,
      "byteStride": 8,
      "name": "floatBufferViews",
      "target": 34962
    },
    {
      "buffer": 0,
      "byteLength": 1788360,
      "byteOffset": 4606144,
      "byteStride": 12,
      "name": "floatBufferViews",
      "target": 34962
    },
    {
      "buffer": 0,
      "byteLength": 1192240,
      "byteOffset": 6394504,
      "byteStride": 16,
      "name": "floatBufferViews",
      "target": 34962
    }
  ],
  "buffers": [
    {
      "byteLength": 7586744,
      "uri": "scene.bin"
    }
  ],
  "extensionsUsed": [
    "KHR_materials_emissive_strength"
  ],
  "images": [
    {
      "uri": "textures/Material_baseColor.png"
    },
    {
      "uri": "textures/Material_metallicRoughness.png"
    },
    {
      "uri": "textures/Material_emissive.png"
    },
    {
      "uri": "textures/Material_normal.png"
    }
  ],
  "materials": [
    {
      "doubleSided": true,
      "emissiveFactor": [
        1.0,
        1.0,
        1.0
      ],
      "emissiveTexture": {
        "index": 2,
        "texCoord": 2
      },
      "extensions": {
        "KHR_materials_emissive_strength": {
          "emissiveStrength": 4.6
        }
      },
      "name": "Material",
      "normalTexture": {
        "index": 3,
        "texCoord": 3
      },
      "pbrMetallicRoughness": {
        "baseColorTexture": {
          "index": 0
        },
        "metallicRoughnessTexture": {
          "index": 1,
          "texCoord": 1
        }
      }
    }
  ],
  "meshes": [
    {
      "name": "Object_0",
      "primitives": [
        {
          "attributes": {
            "NORMAL": 1,
            "POSITION": 0,
            "TANGENT": 2,
            "TEXCOORD_0": 3,
            "TEXCOORD_1": 4,
            "TEXCOORD_2": 5,
            "TEXCOORD_3": 6,
            "TEXCOORD_4": 7
          },
          "indices": 8,
          "material": 0,
          "mode": 4
        }
      ]
    },
    {
      "name": "Object_1",
      "primitives": [
        {
          "attributes": {
            "NORMAL": 10,
            "POSITION": 9,
            "TANGENT": 11,
            "TEXCOORD_0": 12,
            "TEXCOORD_1": 13,
            "TEXCOORD_2": 14,
            "TEXCOORD_3": 15,
            "TEXCOORD_4": 16
          },
          "indices": 17,
          "material": 0,
          "mode": 4
        }
      ]
    }
  ],
  "nodes": [
    {
      "children": [
        1
      ],
      "matrix": [
        1.0,
        0.0,
        0.0,
        0.0,
        0.0,
        2.220446049250313e-16,
        -1.0,
        0.0,
        0.0,
        1.0,
        2.220446049250313e-16,
        0.0,
        0.0,
        0.0,
        0.0,
        1.0
      ],
      "name": "Sketchfab_model"
    },
    {
      "children": [
        2
      ],
      "name": "root"
    },
    {
      "children": [
        3
      ],
      "matrix": [
        1.0,
        0.0,
        0.0,
        0.0,
        0.0,
        2.220446049250313e-16,
        1.0,
        0.0,
        0.0,
        -1.0,
        2.220446049250313e-16,
        0.0,
        0.0,
        0.0,
        0.0,
        1.0
      ],
      "name": "GLTF_SceneRootNode"
    },
    {
      "children": [
        4,
        5
      ],
      "matrix": [
        1.0,
        0.0,
        0.0,
        0.0,
        0.0,
        0.0,
        1.0,
        0.0,
        0.0,
        -1.0,
        0.0,
        0.0,
        0.0,
        0.0,
        0.0,
        1.0
      ],
      "name": "drone_0"
    },
    {
      "mesh": 0,
      "name": "Object_4"
    },
    {
      "mesh": 1,
      "name": "Object_5"
    }
  ],
  "samplers": [
    {
      "magFilter": 9729,
      "minFilter": 9987,
      "wrapS": 10497,
      "wrapT": 10497
    }
  ],
  "scene": 0,
  "scenes": [
    {
      "name": "Sketchfab_Scene",
      "nodes": [
        0
      ]
    }
  ],
  "textures": [
    {
      "sampler": 0,
      "source": 0
    },
    {
      "sampler": 0,
      "source": 1
    },
    {
      "sampler": 0,
      "source": 2
    },
    {
      "sampler": 0,
      "source": 3
    }
  ]
}
