{
  "accessors": [
    {
      "bufferView": 2,
      "componentType": 5126,
      "count": 592,
      "max": [
        1.0,
        1.0,
        1.6761490106582642
      ],
      "min": [
        -1.0,
        -1.0,
        -1.3216400146484375
      ],
      "type": "VEC3"
    },
    {
      "bufferView": 2,
      "byteOffset": 7104,
      "componentType": 5126,
      "count": 592,
      "max": [
        0.9939731359481812,
        0.9939731359481812,
        1.0
      ],
      "min": [
        -0.9939731359481812,
        -0.9939731359481812,
        -1.0
      ],
      "type": "VEC3"
    },
    {
      "bufferView": 3,
      "componentType": 5126,
      "count": 592,
      "max": [
        0.9644991755485535,
        0.9977281093597412,
        0.9939730763435364,
        1.0
      ],
      "min": [
        -0.9644991159439087,
        -0.9644991159439087,
        -0.7204926609992981,
        1.0
      ],
      "type": "VEC4"
    },
    {
      "bufferView": 1,
      "componentType": 5126,
      "count": 592,
      "max": [
        0.9485669732093811,
        0.991752028465271
      ],
      "min": [
        0.008248000405728817,
        0.008248000405728817
      ],
      "type": "VEC2"
    },
    {
      "bufferView": 0,
      "componentType": 5125,
      "count": 2496,
      "type": "SCALAR"
    }
  ],
  "asset": {
    "extras": {
      "author": "Jesus Fernandez Garcia (https://sketchfab.com/jamyzgenius)",
      "license": "CC-BY-4.0 (http://creativecommons.org/licenses/by/4.0/)",
      "source": "https://sketchfab.com/3d-models/sci-fi-barrel-blue-e3ef11118f5a4bc6af3811550523c4d2",
      "title": "Sci Fi Barrel - Blue"
    },
    "generator": "Sketchfab-12.66.0",
    "version": "2.0"
  },
  "bufferViews": [
    {
      "buffer": 0,
      "byteLength": 9984,
      "name": "floatBufferViews",
      "target": 34963
    },
    {
      "buffer": 0,
      "byteLength": 4736,
      "byteOffset": 9984,
      "byteStride": 8,
      "name": "floatBufferViews",
      "target": 34962
    },
    {
      "buffer": 0,
      "byteLength": 14208,
      "byteOffset": 14720,
      "byteStride": 12,
      "name": "floatBufferViews",
      "target": 34962
    },
    {
      "buffer": 0,
      "byteLength": 9472,
      "byteOffset": 28928,
      "byteStride": 16,
      "name": "floatBufferViews",
      "target": 34962
    }
  ],
  "buffers": [
    {
      "byteLength": 38400,
      "uri": "scene.bin"
    }
  ],
  "images": [
    {
      "uri": "textures/M_ContainerS_JFG_1_baseColor.jpeg"
    },
    {
      "uri": "textures/M_ContainerS_JFG_1_metallicRoughness.png"
    },
    {
      "uri": "textures/M_ContainerS_JFG_1_emissive.jpeg"
    },
    {
      "uri": "textures/M_ContainerS_JFG_1_normal.png"
    }
  ],
  "materials": [
    {
      "doubleSided": true,
      "emissiveFactor": [
        1.0,
        1.0,
        1.0
      ],
      "emissiveTexture": {
        "index": 2
      },
      "name": "M_ContainerS_JFG_1",
      "normalTexture": {
        "index": 3
      },
      "occlusionTexture": {
        "index": 1
      },
      "pbrMetallicRoughness": {
        "baseColorTexture": {
          "index": 0
        },
        "metallicRoughnessTexture": {
          "index": 1
        }
      }
    }
  ],
  "meshes": [
    {
      "name": "defaultMaterial",
      "primitives": [
        {
          "attributes": {
            "NORMAL": 1,
            "POSITION": 0,
            "TANGENT": 2,
            "TEXCOORD_0": 3
          },
          "indices": 4,
          "material": 0,
          "mode": 4
        }
      ]
    }
  ],
  "nodes": [
    {
      "children": [
        1
      ],
      "matrix": [
        1.0,
        0.0,
        0.0,
        0.0,
        0.0,
        2.220446049250313e-16,
        -1.0,
        0.0,
        0.0,
        1.0,
        2.220446049250313e-16,
        0.0,
        0.0,
        0.0,
        0.0,
        1.0
      ],
      "name": "Sketchfab_model"
    },
    {
      "children": [
        2
      ],
      "matrix": [
        1.0,
        0.0,
        0.0,
        0.0,
        0.0,
        -4.371139006309477e-08,
        0.999999999999999,
        0.0,
        0.0,
        -0.999999999999999,
        -4.371139006309477e-08,
        0.0,
        0.0,
        0.0,
        0.0,
        1.0
      ],
      "name": "Collada visual scene group"
    },
    {
      "children": [
        3
      ],
      "matrix": [
        83.634094,
        0.0,
        0.0,
        0.0,
        0.0,
        -1.4e-05,
        -83.634094,
        0.0,
        0.0,
        83.634094,
        -1.4e-05,
        0.0,
        0.0,
        168.967468,
        0.0,
        1.0
      ],
      "name": "SM_ContainerS_JFG_1"
    },
    {
      "mesh": 0,
      "name": "defaultMaterial"
    }
  ],
  "samplers": [
    {
      "magFilter": 9729,
      "minFilter": 9987,
      "wrapS": 10497,
      "wrapT": 10497
    }
  ],
  "scene": 0,
  "scenes": [
    {
      "name": "Sketchfab_Scene",
      "nodes": [
        0
      ]
    }
  ],
  "textures": [
    {
      "sampler": 0,
      "source": 0
    },
    {
      "sampler": 0,
      "source": 1
    },
    {
      "sampler": 0,
      "source": 2
    },
    {
      "sampler": 0,
      "source": 3
    }
  ]
}
